# xmcd
# Track frame offsets:
# 150
# 21450
# 41775
# 61943
# 82455
# 98430
# 112380
# 131355
# 147218
# 171593
# 186293
# 203468
#
# Disc length: 3026 seconds
# Revision: 0
# Processed by: cddbd v1.5.2PL0 Copyright (c) Steve Scherf et al.
# Submitted via: VisiTrax 2.11.0.264 - For more info visit www.synapsa.com
#
DISCID=b20bd00c
DTITLE=Pete Cornelius - Gonna Burn
DYEAR=2005
DGENRE=
TTITLE0=C'mon baby
TTITLE1=I can't wait
TTITLE2=Six strings down
TTITLE3=Mile after mile
TTITLE4=Gonna burn
TTITLE5=Gin soaked boy
TTITLE6=Billfish bay
TTITLE7=Jellyfish
TTITLE8=Mr siegal
TTITLE9=Workin' away
TTITLE10=Stealin' stealin'
TTITLE11=Don't let the sunset
EXTD=
EXTT0=
EXTT1=
EXTT2=
EXTT3=
EXTT4=
EXTT5=
EXTT6=
EXTT7=
EXTT8=
EXTT9=
EXTT10=
EXTT11=
PLAYORDER=
